<svg width="256" height="256" viewBox="0 0 256 256" fill="none" xmlns="http://www.w3.org/2000/svg">
<g clip-path="url(#clip0_2005_7)">
<g clip-path="url(#clip1_2005_7)">
<path d="M52.7756 199.652C48.6559 197.731 45.5479 194.08 44.1354 189.504C42.7229 184.928 43.1215 179.8 45.2436 175.25L109.254 37.9788C111.376 33.4279 115.048 29.8267 119.461 27.9671C123.875 26.1076 128.669 26.1422 132.789 28.0632L194.922 57.0363C197.382 58.1784 199.569 59.8468 201.355 61.9454C203.142 64.0441 204.493 66.5316 205.332 69.2647L218.844 113.042C219.696 115.774 220.017 118.701 219.79 121.653C219.562 124.605 218.79 127.525 217.518 130.243L169.51 233.196C167.388 237.747 163.716 241.348 159.302 243.207C154.889 245.067 150.095 245.032 145.975 243.111L52.7756 199.652Z" fill="#F2F2F2" stroke="black" stroke-width="2" stroke-linecap="round" stroke-linejoin="round"/>
<path d="M194.922 57.0363L174.918 99.9334C173.857 102.209 173.658 104.773 174.364 107.061C175.071 109.349 176.625 111.174 178.684 112.134L217.518 130.243" stroke="black" stroke-width="2" stroke-linecap="round" stroke-linejoin="round"/>
</g>
<g clip-path="url(#clip2_2005_7)">
<path d="M56.3271 201.254C51.9364 200.078 48.2418 197.023 46.0561 192.761C43.8704 188.5 43.3726 183.381 44.6722 178.531L83.8733 32.23C85.1729 27.3798 88.1634 23.1957 92.1871 20.598C96.2107 18.0003 100.938 17.2019 105.328 18.3783L171.549 36.122C174.17 36.8194 176.613 38.0828 178.737 39.8393C180.861 41.5959 182.624 43.8109 183.924 46.3569L204.833 87.1229C206.146 89.6652 206.971 92.4915 207.26 95.4385C207.548 98.3855 207.295 101.395 206.514 104.292L177.113 214.018C175.813 218.868 172.823 223.052 168.799 225.65C164.775 228.248 160.048 229.046 155.657 227.87L56.3271 201.254Z" fill="#F2F2F2" stroke="black" stroke-width="2" stroke-linecap="round" stroke-linejoin="round"/>
<path d="M171.549 36.122L159.298 81.8409C158.649 84.266 158.898 86.8255 159.99 88.9562C161.083 91.0869 162.931 92.6144 165.126 93.2027L206.514 104.292" stroke="black" stroke-width="2" stroke-linecap="round" stroke-linejoin="round"/>
</g>
<path d="M59.4163 202.319C54.888 201.922 50.7191 199.555 47.8266 195.738C44.9341 191.921 43.5549 186.966 43.9925 181.964L57.1933 31.0791C57.6309 26.0769 59.8495 21.437 63.3609 18.1801C66.8723 14.9232 71.389 13.316 75.9172 13.7122L144.213 19.6873C146.915 19.9188 149.541 20.7388 151.937 22.0998C154.334 23.4609 156.455 25.3362 158.177 27.6178L185.847 64.1336C187.582 66.4092 188.885 69.0494 189.681 71.9015C190.477 74.7536 190.75 77.7612 190.484 80.7505L180.583 193.914C180.146 198.917 177.927 203.556 174.416 206.813C170.904 210.07 166.388 211.677 161.859 211.281L59.4163 202.319Z" fill="#F2F2F2" stroke="black" stroke-width="2" stroke-linecap="round" stroke-linejoin="round"/>
<path d="M144.213 19.6873L140.087 66.8389C139.869 69.3399 140.558 71.8173 142.004 73.7259C143.451 75.6345 145.535 76.818 147.799 77.0161L190.484 80.7505" stroke="black" stroke-width="2" stroke-linecap="round" stroke-linejoin="round"/>
<g filter="url(#filter0_d_2005_7)">
<path d="M160.229 149.673C160.306 149.262 160.524 148.89 160.846 148.623C161.168 148.355 161.574 148.209 161.992 148.209C162.411 148.209 162.816 148.355 163.138 148.623C163.46 148.89 163.678 149.262 163.755 149.673L165.639 159.64C165.773 160.348 166.118 161 166.628 161.51C167.137 162.02 167.789 162.364 168.498 162.498L178.464 164.383C178.876 164.459 179.247 164.678 179.515 165C179.782 165.322 179.928 165.727 179.928 166.145C179.928 166.564 179.782 166.969 179.515 167.291C179.247 167.613 178.876 167.831 178.464 167.908L168.498 169.793C167.789 169.927 167.137 170.271 166.628 170.781C166.118 171.291 165.773 171.942 165.639 172.651L163.755 182.618C163.678 183.029 163.46 183.4 163.138 183.668C162.816 183.935 162.411 184.082 161.992 184.082C161.574 184.082 161.168 183.935 160.846 183.668C160.524 183.4 160.306 183.029 160.229 182.618L158.345 172.651C158.211 171.942 157.867 171.291 157.357 170.781C156.847 170.271 156.195 169.927 155.486 169.793L145.52 167.908C145.108 167.831 144.737 167.613 144.47 167.291C144.202 166.969 144.056 166.564 144.056 166.145C144.056 165.727 144.202 165.322 144.47 165C144.737 164.678 145.108 164.459 145.52 164.383L155.486 162.498C156.195 162.364 156.847 162.02 157.357 161.51C157.867 161 158.211 160.348 158.345 159.64L160.229 149.673Z" fill="#E8B037"/>
<path d="M160.229 149.673C160.306 149.262 160.524 148.89 160.846 148.623C161.168 148.355 161.574 148.209 161.992 148.209C162.411 148.209 162.816 148.355 163.138 148.623C163.46 148.89 163.678 149.262 163.755 149.673L165.639 159.64C165.773 160.348 166.118 161 166.628 161.51C167.137 162.02 167.789 162.364 168.498 162.498L178.464 164.383C178.876 164.459 179.247 164.678 179.515 165C179.782 165.322 179.928 165.727 179.928 166.145C179.928 166.564 179.782 166.969 179.515 167.291C179.247 167.613 178.876 167.831 178.464 167.908L168.498 169.793C167.789 169.927 167.137 170.271 166.628 170.781C166.118 171.291 165.773 171.942 165.639 172.651L163.755 182.618C163.678 183.029 163.46 183.4 163.138 183.668C162.816 183.935 162.411 184.082 161.992 184.082C161.574 184.082 161.168 183.935 160.846 183.668C160.524 183.4 160.306 183.029 160.229 182.618L158.345 172.651C158.211 171.942 157.867 171.291 157.357 170.781C156.847 170.271 156.195 169.927 155.486 169.793L145.52 167.908C145.108 167.831 144.737 167.613 144.47 167.291C144.202 166.969 144.056 166.564 144.056 166.145C144.056 165.727 144.202 165.322 144.47 165C144.737 164.678 145.108 164.459 145.52 164.383L155.486 162.498C156.195 162.364 156.847 162.02 157.357 161.51C157.867 161 158.211 160.348 158.345 159.64L160.229 149.673Z" stroke="black" stroke-linecap="round" stroke-linejoin="round"/>
</g>
<path d="M60.3725 202.911C55.8442 203.307 51.3276 201.7 47.8162 198.443C44.3047 195.186 42.0862 190.546 41.6486 185.544L28.4478 34.659C28.0102 29.6569 29.3893 24.7022 32.2818 20.885C35.1744 17.0678 39.3433 14.7008 43.8716 14.3046L112.167 8.32953C114.869 8.08826 117.597 8.43986 120.193 9.36408C122.79 10.2883 125.204 11.7669 127.296 13.7146L160.887 44.8708C162.991 46.8106 164.733 49.1844 166.012 51.855C167.291 54.5256 168.082 57.4401 168.339 60.4302L178.239 173.594C178.677 178.596 177.298 183.551 174.405 187.368C171.513 191.185 167.344 193.552 162.816 193.948L60.3725 202.911Z" fill="#F2F2F2" stroke="black" stroke-width="2" stroke-linecap="round" stroke-linejoin="round"/>
<path d="M112.167 8.32953L116.292 55.4811C116.511 57.9822 117.62 60.3022 119.376 61.9306C121.132 63.5591 123.39 64.3627 125.654 64.1646L168.339 60.4302" stroke="black" stroke-width="2" stroke-linecap="round" stroke-linejoin="round"/>
<path d="M162.052 170.848L54.8441 180.228" stroke="black" stroke-width="2" stroke-linecap="round" stroke-linejoin="round"/>
<path d="M160.503 153.14L53.2948 162.519" stroke="black" stroke-width="2" stroke-linecap="round" stroke-linejoin="round"/>
<path d="M158.939 135.272L51.7316 144.651" stroke="black" stroke-width="2" stroke-linecap="round" stroke-linejoin="round"/>
<path d="M157.376 117.404L50.1683 126.784" stroke="black" stroke-width="2" stroke-linecap="round" stroke-linejoin="round"/>
<path d="M155.813 99.5361L48.6051 108.916" stroke="black" stroke-width="2" stroke-linecap="round" stroke-linejoin="round"/>
<path d="M154.25 81.6681L47.0419 91.0475" stroke="black" stroke-width="2" stroke-linecap="round" stroke-linejoin="round"/>
<path d="M105.038 67.9687L45.4785 73.1796" stroke="black" stroke-width="2" stroke-linecap="round" stroke-linejoin="round"/>
<path d="M103.475 50.1008L43.9153 55.3116" stroke="black" stroke-width="2" stroke-linecap="round" stroke-linejoin="round"/>
<path d="M101.912 32.2328L42.3521 37.4436" stroke="black" stroke-width="2" stroke-linecap="round" stroke-linejoin="round"/>
<path d="M174 100C214.879 100 248 132.78 248 173.193C248 213.607 214.879 246.388 174 246.388C133.121 246.388 100 213.607 100 173.193C100 132.78 133.121 100 174 100Z" fill="#83EF67" stroke="black" stroke-width="2"/>
<path d="M224.5 143.516L157.812 211.527L127.5 180.613" stroke="black" stroke-width="5" stroke-linecap="round" stroke-linejoin="round"/>
</g>
<defs>
<filter id="filter0_d_2005_7" x="139.556" y="147.709" width="44.8724" height="44.8724" filterUnits="userSpaceOnUse" color-interpolation-filters="sRGB">
<feFlood flood-opacity="0" result="BackgroundImageFix"/>
<feColorMatrix in="SourceAlpha" type="matrix" values="0 0 0 0 0 0 0 0 0 0 0 0 0 0 0 0 0 0 127 0" result="hardAlpha"/>
<feOffset dy="4"/>
<feGaussianBlur stdDeviation="2"/>
<feComposite in2="hardAlpha" operator="out"/>
<feColorMatrix type="matrix" values="0 0 0 0 0 0 0 0 0 0 0 0 0 0 0 0 0 0 0.25 0"/>
<feBlend mode="normal" in2="BackgroundImageFix" result="effect1_dropShadow_2005_7"/>
<feBlend mode="normal" in="SourceGraphic" in2="effect1_dropShadow_2005_7" result="shape"/>
</filter>
<clipPath id="clip0_2005_7">
<rect width="256" height="256" fill="white"/>
</clipPath>
<clipPath id="clip1_2005_7">
<rect width="205.669" height="227.192" fill="white" transform="translate(94.1901 -10.8255) rotate(25)"/>
</clipPath>
<clipPath id="clip2_2005_7">
<rect width="205.669" height="227.192" fill="white" transform="translate(60.5635 -13.217) rotate(15)"/>
</clipPath>
</defs>
</svg>
